<svg width="114" height="14" viewBox="0 0 114 14" fill="none" xmlns="http://www.w3.org/2000/svg">
<path fill-rule="evenodd" clip-rule="evenodd" d="M57.9702 0.0136719V5.9446H53.5008V0.0136719H52.032V13.3568H53.5008V7.42682H57.9702V13.3568H59.44V0.0136719H57.9702Z" fill="white"/>
<path fill-rule="evenodd" clip-rule="evenodd" d="M38.6052 0.0136719V1.49599H41.5438V13.3569H43.0126V1.49599H45.9512V0.0136719H38.6052Z" fill="white"/>
<path fill-rule="evenodd" clip-rule="evenodd" d="M83.5588 11.8736C80.7187 11.8736 78.4165 9.55034 78.4165 6.68525C78.4165 3.81913 80.7187 1.49589 83.5588 1.49589C86.398 1.49589 88.7001 3.81913 88.7001 6.68525C88.7001 9.55034 86.398 11.8736 83.5588 11.8736M83.5588 0.0136719C79.9071 0.0136719 76.9478 3.00016 76.9478 6.68525C76.9478 10.3694 79.9071 13.3568 83.5588 13.3568C87.2096 13.3568 90.1699 10.3694 90.1699 6.68525C90.1699 3.00016 87.2096 0.0136719 83.5588 0.0136719" fill="white"/>
<path fill-rule="evenodd" clip-rule="evenodd" d="M108.674 1.49589V5.94419H113.248V7.42641H108.674V11.8736H113.247V13.3568H107.206V0.0136719H113.247V1.49589H108.674Z" fill="white"/>
<path fill-rule="evenodd" clip-rule="evenodd" d="M32.5924 11.2887L32.5914 8.92058V0.0250078H31.1229V9.01446L31.0549 8.90409L26.5464 1.58833L25.564 0.0136719H25.0779V13.357H26.5464V4.46146L31.0549 11.6845L32.1057 13.3684H32.1737H32.5254H32.5934L32.5924 11.2887Z" fill="white"/>
<path fill-rule="evenodd" clip-rule="evenodd" d="M102.009 11.2887L102.008 8.92058V0.0250078H100.54V9.01446L100.472 8.90409L95.9633 1.58833L94.981 0.0136719H94.4949V13.357H95.9633V4.46146L100.472 11.6845L101.523 13.3684H101.591H101.942H102.01L102.009 11.2887Z" fill="white"/>
<path fill-rule="evenodd" clip-rule="evenodd" d="M1.46878 8.83279V1.57329C3.08348 1.82433 4.39908 3.41331 4.39908 5.20304C4.39908 6.03777 4.1254 6.80768 3.66413 7.42693C3.13659 8.13615 2.3612 8.6476 1.46878 8.83279M4.32239 1.4959C3.56252 0.743814 2.56431 0.279455 1.46878 0.0680926C0.903549 -0.0409379 0 0.0136804 0 0.0136804V13.3566H1.46878V10.337C2.57268 10.1759 3.56252 9.66123 4.32239 8.90915C4.75364 8.48447 5.11014 7.98342 5.37136 7.42693C5.68956 6.75224 5.86684 5.99902 5.86684 5.20304C5.86684 3.75009 5.27598 2.43729 4.32239 1.4959" fill="white"/>
<path fill-rule="evenodd" clip-rule="evenodd" d="M13.3313 8.91749L14.8917 3.91744L16.4566 8.91749H13.3313ZM17.8459 13.3569H19.3147L15.6246 1.56813L15.6226 1.55865V1.55762L15.1406 0.0189276L15.1384 0.0136719H14.6409L14.6389 0.0189276L14.1589 1.55556L14.1558 1.56597L10.4761 13.3569H11.9459L12.8683 10.401H16.9208L17.8459 13.3569Z" fill="white"/>
<path fill-rule="evenodd" clip-rule="evenodd" d="M67.846 1.49589V5.94419H72.4193V7.42641H67.846V11.8736H72.4191V13.3568H66.3772V0.0136719H72.4191V1.49589H67.846Z" fill="white"/>
</svg>
